<?xml version="1.0" encoding="UTF-8"?><!DOCTYPE svg PUBLIC "-//W3C//DTD SVG 1.1//EN" "http://www.w3.org/Graphics/SVG/1.1/DTD/svg11.dtd"><svg xmlns="http://www.w3.org/2000/svg"><symbol id="icon-close" viewBox="0 0 21.2 21.2">
    <path d="M-.007 2.835L2.822.007 21.206 18.39l-2.828 2.829z"/>
    <path d="M-.003 18.382L18.382-.003l2.828 2.829L2.826 21.21z"/>
</symbol><symbol id="icon-next" viewBox="0 0 36 18">
    <path d="M0 17l18-8L0 1z"/>
    <path d="M16 17l18-8-18-8z"/>
    <path d="M32 0h4v18h-4z"/>
</symbol><symbol id="icon-playlist" viewBox="0 0 26 20">
    <path d="M26 0v4H0V0zm0 8v4H0V8zm0 8v4H0v-4z"/>
</symbol><symbol id="icon-playpause" viewBox="0 0 38 18">
    <path d="M0 17l18-8L0 1zM26 0h4v18h-4zm8 0h4v18h-4z"/>
</symbol><symbol id="icon-prev" viewBox="0 0 36 18">
    <path d="M36 17L18 9l18-8z"/>
    <path d="M20 17L2 9l18-8z"/>
    <path d="M4 18H0V0h4z"/>
</symbol></svg>